<svg width="30" height="30" viewBox="0 0 30 30" fill="none" xmlns="http://www.w3.org/2000/svg">
<g clip-path="url(#clip0_0_112)">
<path d="M13.8 9.80994C14.0124 9.91044 14.0928 10.2656 14.3475 10.4024C14.6019 10.5395 14.823 10.7285 15.1101 10.8098C15.3972 10.8911 15.792 11.0141 16.11 10.9499C16.428 10.8857 16.6263 10.7264 16.89 10.5599C16.8255 10.8422 16.5792 11.063 16.38 11.2499C15.5475 11.7065 14.2902 11.5904 13.5825 12.2924C12.8748 12.9947 12.2529 13.4561 11.4024 13.9223C10.5519 14.3885 9.5937 14.7572 8.64 14.9699C8.6772 15.0665 8.7882 15.1766 8.82 15.2399C8.8521 15.1586 9.0852 15.1463 9.15 15.1199C9.3294 16.1441 10.6545 16.0898 11.4021 15.692C12.15 15.2945 12.8682 14.8379 13.71 14.6399C14.5518 14.4419 15.6519 14.417 16.431 14.0006C17.2098 13.5845 17.5488 12.6326 17.67 11.8499C17.6943 12.0857 17.7096 12.3254 17.7 12.5699C17.7813 12.7346 18.0108 12.6461 18.1569 12.803C18.303 12.9599 18.3456 12.8996 18.5625 13.0874C18.7791 13.2752 19.0524 13.5566 19.2525 13.7774C19.4526 13.9982 19.4103 13.9715 19.56 14.1899C19.7118 14.411 19.8387 14.6408 19.95 14.9099C19.4736 14.4845 18.9186 14.1293 18.27 14.0999C18.4605 14.3312 18.7944 14.543 18.93 14.8199C21.5265 17.402 19.9443 22.3016 16.59 23.3999C20.0538 23.0816 22.608 19.3106 22.2897 15.9302C21.9714 12.5498 19.4628 9.99444 16.71 8.27994C16.6695 8.50314 16.7814 8.74374 16.71 8.93994C16.4733 8.33334 16.3872 7.33344 15.6066 7.19334C14.8263 7.05324 13.8342 7.53234 13.0866 7.34334C12.3393 7.15404 11.8056 6.69804 11.04 6.56994C10.2747 6.44184 9.3588 6.55704 8.7369 6.99684C8.115 7.43664 7.6401 7.99854 7.77 8.78994C8.0592 8.66094 8.3739 8.51034 8.73 8.51994C9.0861 8.52954 9.4428 8.64624 9.7593 8.74044C10.0758 8.83494 10.3536 8.98134 10.6734 9.09654C10.9929 9.21174 11.2896 9.33444 11.6196 9.44034C11.9496 9.54624 12.3252 9.58314 12.66 9.68994C12.9945 9.79704 13.491 9.66384 13.8 9.80994ZM9.39 7.52994C9.1821 7.62084 8.8884 7.81734 8.73 7.91994C8.6802 7.97394 8.6046 8.02314 8.55 8.06994C8.7264 7.30584 9.6879 7.02924 10.35 7.31994C10.0359 7.36764 9.7023 7.43724 9.39 7.52994ZM16.65 9.14994C16.4052 8.92884 16.2522 8.75424 15.9876 8.55234C15.7227 8.35044 15.4179 8.70684 15.15 8.78994C15.1461 9.01524 15.4641 9.01614 15.54 9.14994C15.0015 8.95344 14.1882 8.80014 14.04 8.12994C13.437 8.05194 12.8772 7.81824 12.3 7.64994C12.7206 7.61934 13.1601 7.84104 13.62 7.79994C14.0799 7.75884 14.6526 7.87554 15.09 7.73994C15.5274 7.60464 15.7953 7.86114 16.0425 8.19744C16.2897 8.53344 16.4856 8.78064 16.65 9.14994Z" stroke="#6B864E" stroke-opacity="0.98" stroke-width="0.3"/>
<path d="M8.73 7.91989C8.9244 7.70959 9.1074 7.61089 9.39 7.52989C9.7023 7.43719 10.0359 7.36759 10.35 7.31989C9.6879 7.02919 8.7264 7.30579 8.55 8.06989C8.6046 8.02309 8.6802 7.97389 8.73 7.91989Z" stroke="#28341B" stroke-opacity="0.98" stroke-width="0.3"/>
<path d="M8.73 7.92003C8.8884 7.81743 9.1821 7.62093 9.39 7.53003C9.1074 7.61103 8.9244 7.70973 8.73 7.92003Z" stroke="black" stroke-opacity="0.04" stroke-width="0.3"/>
<path d="M16.65 9.14988C16.4856 8.78058 16.2897 8.53338 16.0425 8.19738C15.7953 7.86108 15.5274 7.60458 15.09 7.73988C14.6526 7.87548 14.0799 7.75878 13.62 7.79988C13.1601 7.84098 12.7206 7.61928 12.3 7.64988C12.8772 7.81818 13.437 8.05188 14.04 8.12988C14.1882 8.80008 15.0015 8.95338 15.54 9.14988C15.4641 9.01608 15.1461 9.01518 15.15 8.78988C15.4179 8.70678 15.7227 8.35038 15.9876 8.55228C16.2522 8.75418 16.4052 8.92878 16.65 9.14988ZM15.33 8.24988C15.1605 8.52528 14.8617 8.54028 14.64 8.36988C14.8533 8.31108 15.1146 8.34048 15.33 8.24988Z" stroke="#29331D" stroke-opacity="0.98" stroke-width="0.3"/>
<path d="M16.38 11.25C16.5792 11.0631 16.8255 10.8423 16.89 10.56C16.6263 10.7265 16.428 10.8858 16.11 10.95C15.792 11.0142 15.3972 10.8912 15.1101 10.8099C14.823 10.7286 14.6019 10.5396 14.3475 10.4025C14.0928 10.2657 14.0124 9.91046 13.8 9.80996C13.5945 9.90536 13.7784 10.2297 13.74 10.38C13.5852 10.2471 13.4742 10.0491 13.5 9.83996C13.41 9.83996 13.32 9.83996 13.23 9.83996C13.1889 9.99326 13.1337 10.1631 13.2 10.32C13.074 10.2015 12.9693 10.0287 12.99 9.83996C12.8901 9.83996 12.7899 9.83996 12.69 9.83996C12.6759 9.97616 12.6165 10.0986 12.66 10.23C12.5409 10.1244 12.4194 9.94406 12.45 9.77996C12.3657 9.78836 12.2853 9.77396 12.21 9.74996C12.1716 9.89666 12.171 10.0542 12.21 10.2C11.9448 10.0521 12.0204 9.56066 11.61 9.65996C11.5899 9.85826 11.4684 10.0893 11.28 10.17C11.3829 9.98186 11.3253 9.75146 11.34 9.53996C11.232 9.54596 11.1504 9.46136 11.04 9.47996C11.01 9.73256 10.9233 10.0344 10.68 10.14C10.8138 9.87926 10.6953 9.57866 10.71 9.29996C10.6059 9.31376 10.5378 9.21536 10.44 9.20996C10.3563 9.49556 10.2936 9.84986 10.02 9.98996C10.0941 9.81206 10.0875 9.55826 10.0734 9.36656C10.0593 9.17486 10.128 8.94266 9.83999 8.96996C9.77669 9.15386 9.68849 9.33056 9.71999 9.53996C9.46799 9.34286 9.60479 8.87246 9.35999 8.75996C8.99159 8.86886 9.08399 9.35606 9.17999 9.62996C8.87279 9.43496 8.72489 9.04946 8.78999 8.69996C8.71439 8.71406 8.60309 8.66906 8.54999 8.72996C8.65829 8.80616 8.52329 9.00206 8.51999 9.14996C8.51669 9.29786 8.56559 9.50456 8.51999 9.62996C8.32169 9.38786 8.20379 9.10046 8.15999 8.78996C7.73729 8.89526 8.21309 9.20816 8.04929 9.45926C7.88519 9.71006 7.93559 10.0614 8.03999 10.32C8.14379 10.1433 8.18249 9.77666 8.48999 9.74996C8.40629 10.0086 8.48729 10.3482 8.57999 10.53C8.69249 10.3722 8.67539 9.97196 8.99999 9.95996C8.93459 10.2192 8.95379 10.5498 9.14999 10.74C9.19499 10.5069 9.26429 10.1967 9.53999 10.11C9.55829 10.3353 9.47429 10.7619 9.74999 10.8C9.76859 10.5897 9.82019 10.3212 10.05 10.26C10.0776 10.4919 10.0071 10.7937 10.26 10.92C10.2072 10.7994 10.3548 10.29 10.5087 10.3413C10.6629 10.3923 10.5078 10.9272 10.8 10.92C10.749 10.7235 10.8819 10.4454 11.1 10.41C11.0967 10.5915 11.1438 10.8336 11.34 10.89C11.3118 10.7373 11.3304 10.5204 11.46 10.41C11.5437 10.512 11.5293 10.7418 11.7 10.77C11.6709 10.6023 11.7906 10.4829 11.85 10.35C11.8428 10.5609 11.9949 10.8147 12.12 10.5C12.2037 10.7547 12.1767 11.0355 12.18 11.31C11.6274 11.3826 11.3343 11.8218 10.7601 11.9601C10.1862 12.0987 9.35099 11.8563 8.78999 12.09C9.38429 12.1731 9.98519 12.4536 10.5894 12.4506C11.1933 12.4476 11.697 12.0768 12.3 12C12.3639 12.192 12.3063 12.6744 12.06 12.6C12.0024 12.6975 12.0414 12.8202 12.03 12.93C11.8815 12.9573 11.8482 12.7236 11.7 12.75C11.664 12.8871 11.6235 13.0203 11.64 13.17C11.472 13.1286 11.4102 12.9153 11.31 12.84C11.2428 13.0065 11.2278 13.2171 11.22 13.41C10.9812 13.4238 10.9476 13.0887 10.77 13.05C10.7253 13.257 10.7232 13.4733 10.68 13.68C10.428 13.6431 10.401 13.3533 10.26 13.23C10.1802 13.4247 10.2021 13.6452 10.2 13.86C9.95189 13.8618 9.91139 13.5453 9.83999 13.41C9.72629 13.6077 9.74849 13.8723 9.77999 14.1C9.49799 14.0997 9.51389 13.7217 9.32999 13.62C9.33749 13.8141 9.20159 14.0655 9.29999 14.28C9.06869 14.2653 9.08789 13.9197 8.87999 13.89C8.77739 14.1672 8.79059 14.3874 8.88089 14.6691C8.97089 14.9511 9.28919 14.6637 9.50999 14.67C9.53279 14.5266 9.60059 14.3946 9.68999 14.28C9.75839 14.3451 9.83039 14.4303 9.83999 14.52C9.99239 14.5236 10.1136 14.4183 10.26 14.4C10.2495 14.2227 10.3176 14.0382 10.44 13.92C10.4448 14.211 10.6971 14.2578 10.89 14.1C10.869 13.9212 10.908 13.7595 11.01 13.62C11.0766 13.7097 11.1297 13.842 11.22 13.92C11.2845 13.8249 11.4078 13.7703 11.52 13.74C11.4873 13.5453 11.6244 13.4007 11.67 13.23C11.7519 13.3203 11.757 13.4661 11.85 13.56C12.2034 13.5099 12.1269 13.101 12.36 12.93C12.3231 13.1772 12.6594 13.0977 12.6594 12.9306C12.6594 12.7635 12.5625 12.5331 12.75 12.42C12.7896 12.5367 12.8331 12.7119 12.93 12.75C13.155 12.0972 13.5534 11.6982 14.1879 11.4279C14.8224 11.1573 15.8079 11.5677 16.38 11.25Z" stroke="#272F1D" stroke-opacity="0.93" stroke-width="0.3"/>
<path d="M8.82061 15.2695C9.07501 15.7447 9.28171 16.2301 9.90001 16.2601C10.5183 16.2901 11.0448 16.144 11.5779 15.928C12.1107 15.7117 12.4455 15.4474 12.9834 15.2635C13.521 15.0793 14.2497 15.0157 14.82 15.0001C15.3903 14.9845 16.0401 14.797 16.479 15.1111C16.9179 15.4249 17.2164 15.7534 17.4222 16.2379C17.6283 16.7221 17.5965 17.3074 17.319 17.7691C17.0418 18.2308 16.587 18.4354 16.1004 18.5905C15.6138 18.7456 15.1539 19.0012 14.7675 19.3276C14.3808 19.654 14.0109 19.9636 13.779 20.3491C13.5474 20.7349 13.1862 21.2734 13.17 21.7501C13.1694 21.769 13.1793 21.8242 13.17 21.8401C13.3782 21.8458 13.584 21.892 13.8 21.8701C14.0817 20.9344 14.8812 20.1166 15.75 19.6801C15.5505 20.0935 15.3372 20.6968 15.69 21.0901C16.0212 19.6687 17.9049 19.0894 18.21 17.6401C18.6486 18.7393 18.7479 20.0674 18.45 21.2401C18.8481 20.9047 19.0338 20.4274 19.2624 19.9225C19.4907 19.4176 19.6251 18.8056 19.7001 18.2302C19.7751 17.6548 19.7235 16.8508 19.5834 16.2967C19.4433 15.7426 19.2396 15.2809 18.93 14.8201C18.7944 14.5432 18.4605 14.3314 18.27 14.1001C18.9186 14.1295 19.4736 14.4847 19.95 14.9101C19.8387 14.641 19.7118 14.4112 19.56 14.1901C19.0608 13.6174 18.375 13.1533 17.61 13.1101C17.6709 12.9388 17.7 12.7576 17.7 12.5701C17.7096 12.3256 17.6943 12.0859 17.67 11.8501C17.5488 12.6328 17.2098 13.5847 16.431 14.0008C15.6519 14.4172 14.5518 14.4421 13.71 14.6401C12.8682 14.8381 12.15 15.2947 11.4021 15.6922C10.6545 16.09 9.32941 16.1443 9.15001 15.1201C9.08521 15.1465 8.85211 15.1588 8.82001 15.2401L8.82061 15.2695Z" stroke="#27301D" stroke-opacity="0.98" stroke-width="0.3"/>
<path d="M13.17 21.8399C13.1505 21.8393 13.1253 21.878 13.0797 21.8696C13.0341 21.8612 13.0923 21.8141 13.08 21.8099C12.0819 21.6404 11.0751 21.1823 10.2825 20.5574C9.4899 19.9322 8.9676 19.1261 8.58 18.2399C8.6562 18.7697 8.8437 19.3784 9.1224 19.8275C9.4008 20.2769 9.6543 20.666 10.0125 21.0674C10.371 21.4685 10.7289 21.7382 11.139 22.0709C11.5494 22.4033 12.0213 22.589 12.5178 22.8221C13.0143 23.0555 13.6287 23.2034 14.19 23.2799C14.7513 23.3564 15.5769 23.2772 16.0794 23.0993C16.5816 22.9211 17.0916 22.6937 17.4675 22.3574C17.8434 22.0211 18.3498 21.7229 18.45 21.2399C18.7479 20.0672 18.6486 18.7391 18.21 17.6399C17.9049 19.0892 16.0212 19.6685 15.69 21.0899C15.3372 20.6966 15.5505 20.0933 15.75 19.6799C14.8812 20.1164 14.0817 20.9342 13.8 21.8699C13.584 21.8918 13.3782 21.8456 13.17 21.8399Z" stroke="#6B864F" stroke-opacity="0.98" stroke-width="0.3"/>
<path d="M13.08 21.81C13.0923 21.8142 13.0341 21.8613 13.0797 21.8697C13.1253 21.8781 13.1505 21.8394 13.17 21.84C13.1793 21.8241 13.1694 21.7689 13.17 21.75C13.14 21.8247 13.1334 21.8055 13.08 21.81Z" stroke="#7B886C" stroke-opacity="0.42" stroke-width="0.3"/>
<path d="M13.8 9.80994C14.0124 9.91044 14.0928 10.2656 14.3475 10.4024C14.6019 10.5395 14.823 10.7285 15.1101 10.8098C15.3972 10.8911 15.792 11.0141 16.11 10.9499C16.428 10.8857 16.6263 10.7264 16.89 10.5599C16.8255 10.8422 16.5792 11.063 16.38 11.2499C15.5475 11.7065 14.2902 11.5904 13.5825 12.2924C12.8748 12.9947 12.2529 13.4561 11.4024 13.9223C10.5519 14.3885 9.5937 14.7572 8.64 14.9699C8.6772 15.0665 8.7882 15.1766 8.82 15.2399C8.8521 15.1586 9.0852 15.1463 9.15 15.1199C9.3294 16.1441 10.6545 16.0898 11.4021 15.692C12.15 15.2945 12.8682 14.8379 13.71 14.6399C14.5518 14.4419 15.6519 14.417 16.431 14.0006C17.2098 13.5845 17.5488 12.6326 17.67 11.8499C17.6943 12.0857 17.7096 12.3254 17.7 12.5699C17.7813 12.7346 18.0108 12.6461 18.1569 12.803C18.303 12.9599 18.3456 12.8996 18.5625 13.0874C18.7791 13.2752 19.0524 13.5566 19.2525 13.7774C19.4526 13.9982 19.4103 13.9715 19.56 14.1899C19.7118 14.411 19.8387 14.6408 19.95 14.9099C19.4736 14.4845 18.9186 14.1293 18.27 14.0999C18.4605 14.3312 18.7944 14.543 18.93 14.8199C21.5265 17.402 19.9443 22.3016 16.59 23.3999C20.0538 23.0816 22.608 19.3106 22.2897 15.9302C21.9714 12.5498 19.4628 9.99444 16.71 8.27994C16.6695 8.50314 16.7814 8.74374 16.71 8.93994C16.4733 8.33334 16.3872 7.33344 15.6066 7.19334C14.8263 7.05324 13.8342 7.53234 13.0866 7.34334C12.3393 7.15404 11.8056 6.69804 11.04 6.56994C10.2747 6.44184 9.3588 6.55704 8.7369 6.99684C8.115 7.43664 7.6401 7.99854 7.77 8.78994C8.0592 8.66094 8.3739 8.51034 8.73 8.51994C9.0861 8.52954 9.4428 8.64624 9.7593 8.74044C10.0758 8.83494 10.3536 8.98134 10.6734 9.09654C10.9929 9.21174 11.2896 9.33444 11.6196 9.44034C11.9496 9.54624 12.3252 9.58314 12.66 9.68994C12.9945 9.79704 13.491 9.66384 13.8 9.80994ZM9.39 7.52994C9.1821 7.62084 8.8884 7.81734 8.73 7.91994C8.6802 7.97394 8.6046 8.02314 8.55 8.06994C8.7264 7.30584 9.6879 7.02924 10.35 7.31994C10.0359 7.36764 9.7023 7.43724 9.39 7.52994ZM16.65 9.14994C16.4052 8.92884 16.2522 8.75424 15.9876 8.55234C15.7227 8.35044 15.4179 8.70684 15.15 8.78994C15.1461 9.01524 15.4641 9.01614 15.54 9.14994C15.0015 8.95344 14.1882 8.80014 14.04 8.12994C13.437 8.05194 12.8772 7.81824 12.3 7.64994C12.7206 7.61934 13.1601 7.84104 13.62 7.79994C14.0799 7.75884 14.6526 7.87554 15.09 7.73994C15.5274 7.60464 15.7953 7.86114 16.0425 8.19744C16.2897 8.53344 16.4856 8.78064 16.65 9.14994Z" fill="#6B864E" fill-opacity="0.98"/>
<path d="M8.73 7.91989C8.9244 7.70959 9.1074 7.61089 9.39 7.52989C9.7023 7.43719 10.0359 7.36759 10.35 7.31989C9.6879 7.02919 8.7264 7.30579 8.55 8.06989C8.6046 8.02309 8.6802 7.97389 8.73 7.91989Z" fill="#28341B" fill-opacity="0.98"/>
<path d="M8.73 7.92003C8.8884 7.81743 9.1821 7.62093 9.39 7.53003C9.1074 7.61103 8.9244 7.70973 8.73 7.92003Z" fill="black" fill-opacity="0.04"/>
<path d="M16.65 9.14988C16.4856 8.78058 16.2897 8.53338 16.0425 8.19738C15.7953 7.86108 15.5274 7.60458 15.09 7.73988C14.6526 7.87548 14.0799 7.75878 13.62 7.79988C13.1601 7.84098 12.7206 7.61928 12.3 7.64988C12.8772 7.81818 13.437 8.05188 14.04 8.12988C14.1882 8.80008 15.0015 8.95338 15.54 9.14988C15.4641 9.01608 15.1461 9.01518 15.15 8.78988C15.4179 8.70678 15.7227 8.35038 15.9876 8.55228C16.2522 8.75418 16.4052 8.92878 16.65 9.14988ZM15.33 8.24988C15.1605 8.52528 14.8617 8.54028 14.64 8.36988C14.8533 8.31108 15.1146 8.34048 15.33 8.24988Z" fill="#29331D" fill-opacity="0.98"/>
<path d="M16.38 11.25C16.5792 11.0631 16.8255 10.8423 16.89 10.56C16.6263 10.7265 16.428 10.8858 16.11 10.95C15.792 11.0142 15.3972 10.8912 15.1101 10.8099C14.823 10.7286 14.6019 10.5396 14.3475 10.4025C14.0928 10.2657 14.0124 9.91046 13.8 9.80996C13.5945 9.90536 13.7784 10.2297 13.74 10.38C13.5852 10.2471 13.4742 10.0491 13.5 9.83996C13.41 9.83996 13.32 9.83996 13.23 9.83996C13.1889 9.99326 13.1337 10.1631 13.2 10.32C13.074 10.2015 12.9693 10.0287 12.99 9.83996C12.8901 9.83996 12.7899 9.83996 12.69 9.83996C12.6759 9.97616 12.6165 10.0986 12.66 10.23C12.5409 10.1244 12.4194 9.94406 12.45 9.77996C12.3657 9.78836 12.2853 9.77396 12.21 9.74996C12.1716 9.89666 12.171 10.0542 12.21 10.2C11.9448 10.0521 12.0204 9.56066 11.61 9.65996C11.5899 9.85826 11.4684 10.0893 11.28 10.17C11.3829 9.98186 11.3253 9.75146 11.34 9.53996C11.232 9.54596 11.1504 9.46136 11.04 9.47996C11.01 9.73256 10.9233 10.0344 10.68 10.14C10.8138 9.87926 10.6953 9.57866 10.71 9.29996C10.6059 9.31376 10.5378 9.21536 10.44 9.20996C10.3563 9.49556 10.2936 9.84986 10.02 9.98996C10.0941 9.81206 10.0875 9.55826 10.0734 9.36656C10.0593 9.17486 10.128 8.94266 9.83999 8.96996C9.77669 9.15386 9.68849 9.33056 9.71999 9.53996C9.46799 9.34286 9.60479 8.87246 9.35999 8.75996C8.99159 8.86886 9.08399 9.35606 9.17999 9.62996C8.87279 9.43496 8.72489 9.04946 8.78999 8.69996C8.71439 8.71406 8.60309 8.66906 8.54999 8.72996C8.65829 8.80616 8.52329 9.00206 8.51999 9.14996C8.51669 9.29786 8.56559 9.50456 8.51999 9.62996C8.32169 9.38786 8.20379 9.10046 8.15999 8.78996C7.73729 8.89526 8.21309 9.20816 8.04929 9.45926C7.88519 9.71006 7.93559 10.0614 8.03999 10.32C8.14379 10.1433 8.18249 9.77666 8.48999 9.74996C8.40629 10.0086 8.48729 10.3482 8.57999 10.53C8.69249 10.3722 8.67539 9.97196 8.99999 9.95996C8.93459 10.2192 8.95379 10.5498 9.14999 10.74C9.19499 10.5069 9.26429 10.1967 9.53999 10.11C9.55829 10.3353 9.47429 10.7619 9.74999 10.8C9.76859 10.5897 9.82019 10.3212 10.05 10.26C10.0776 10.4919 10.0071 10.7937 10.26 10.92C10.2072 10.7994 10.3548 10.29 10.5087 10.3413C10.6629 10.3923 10.5078 10.9272 10.8 10.92C10.749 10.7235 10.8819 10.4454 11.1 10.41C11.0967 10.5915 11.1438 10.8336 11.34 10.89C11.3118 10.7373 11.3304 10.5204 11.46 10.41C11.5437 10.512 11.5293 10.7418 11.7 10.77C11.6709 10.6023 11.7906 10.4829 11.85 10.35C11.8428 10.5609 11.9949 10.8147 12.12 10.5C12.2037 10.7547 12.1767 11.0355 12.18 11.31C11.6274 11.3826 11.3343 11.8218 10.7601 11.9601C10.1862 12.0987 9.35099 11.8563 8.78999 12.09C9.38429 12.1731 9.98519 12.4536 10.5894 12.4506C11.1933 12.4476 11.697 12.0768 12.3 12C12.3639 12.192 12.3063 12.6744 12.06 12.6C12.0024 12.6975 12.0414 12.8202 12.03 12.93C11.8815 12.9573 11.8482 12.7236 11.7 12.75C11.664 12.8871 11.6235 13.0203 11.64 13.17C11.472 13.1286 11.4102 12.9153 11.31 12.84C11.2428 13.0065 11.2278 13.2171 11.22 13.41C10.9812 13.4238 10.9476 13.0887 10.77 13.05C10.7253 13.257 10.7232 13.4733 10.68 13.68C10.428 13.6431 10.401 13.3533 10.26 13.23C10.1802 13.4247 10.2021 13.6452 10.2 13.86C9.95189 13.8618 9.91139 13.5453 9.83999 13.41C9.72629 13.6077 9.74849 13.8723 9.77999 14.1C9.49799 14.0997 9.51389 13.7217 9.32999 13.62C9.33749 13.8141 9.20159 14.0655 9.29999 14.28C9.06869 14.2653 9.08789 13.9197 8.87999 13.89C8.77739 14.1672 8.79059 14.3874 8.88089 14.6691C8.97089 14.9511 9.28919 14.6637 9.50999 14.67C9.53279 14.5266 9.60059 14.3946 9.68999 14.28C9.75839 14.3451 9.83039 14.4303 9.83999 14.52C9.99239 14.5236 10.1136 14.4183 10.26 14.4C10.2495 14.2227 10.3176 14.0382 10.44 13.92C10.4448 14.211 10.6971 14.2578 10.89 14.1C10.869 13.9212 10.908 13.7595 11.01 13.62C11.0766 13.7097 11.1297 13.842 11.22 13.92C11.2845 13.8249 11.4078 13.7703 11.52 13.74C11.4873 13.5453 11.6244 13.4007 11.67 13.23C11.7519 13.3203 11.757 13.4661 11.85 13.56C12.2034 13.5099 12.1269 13.101 12.36 12.93C12.3231 13.1772 12.6594 13.0977 12.6594 12.9306C12.6594 12.7635 12.5625 12.5331 12.75 12.42C12.7896 12.5367 12.8331 12.7119 12.93 12.75C13.155 12.0972 13.5534 11.6982 14.1879 11.4279C14.8224 11.1573 15.8079 11.5677 16.38 11.25Z" fill="#272F1D" fill-opacity="0.93"/>
<path d="M8.82061 15.2695C9.07501 15.7447 9.28171 16.2301 9.90001 16.2601C10.5183 16.2901 11.0448 16.144 11.5779 15.928C12.1107 15.7117 12.4455 15.4474 12.9834 15.2635C13.521 15.0793 14.2497 15.0157 14.82 15.0001C15.3903 14.9845 16.0401 14.797 16.479 15.1111C16.9179 15.4249 17.2164 15.7534 17.4222 16.2379C17.6283 16.7221 17.5965 17.3074 17.319 17.7691C17.0418 18.2308 16.587 18.4354 16.1004 18.5905C15.6138 18.7456 15.1539 19.0012 14.7675 19.3276C14.3808 19.654 14.0109 19.9636 13.779 20.3491C13.5474 20.7349 13.1862 21.2734 13.17 21.7501C13.1694 21.769 13.1793 21.8242 13.17 21.8401C13.3782 21.8458 13.584 21.892 13.8 21.8701C14.0817 20.9344 14.8812 20.1166 15.75 19.6801C15.5505 20.0935 15.3372 20.6968 15.69 21.0901C16.0212 19.6687 17.9049 19.0894 18.21 17.6401C18.6486 18.7393 18.7479 20.0674 18.45 21.2401C18.8481 20.9047 19.0338 20.4274 19.2624 19.9225C19.4907 19.4176 19.6251 18.8056 19.7001 18.2302C19.7751 17.6548 19.7235 16.8508 19.5834 16.2967C19.4433 15.7426 19.2396 15.2809 18.93 14.8201C18.7944 14.5432 18.4605 14.3314 18.27 14.1001C18.9186 14.1295 19.4736 14.4847 19.95 14.9101C19.8387 14.641 19.7118 14.4112 19.56 14.1901C19.0608 13.6174 18.375 13.1533 17.61 13.1101C17.6709 12.9388 17.7 12.7576 17.7 12.5701C17.7096 12.3256 17.6943 12.0859 17.67 11.8501C17.5488 12.6328 17.2098 13.5847 16.431 14.0008C15.6519 14.4172 14.5518 14.4421 13.71 14.6401C12.8682 14.8381 12.15 15.2947 11.4021 15.6922C10.6545 16.09 9.32941 16.1443 9.15001 15.1201C9.08521 15.1465 8.85211 15.1588 8.82001 15.2401L8.82061 15.2695Z" fill="#27301D" fill-opacity="0.98"/>
<path d="M13.17 21.8399C13.1505 21.8393 13.1253 21.878 13.0797 21.8696C13.0341 21.8612 13.0923 21.8141 13.08 21.8099C12.0819 21.6404 11.0751 21.1823 10.2825 20.5574C9.4899 19.9322 8.9676 19.1261 8.58 18.2399C8.6562 18.7697 8.8437 19.3784 9.1224 19.8275C9.4008 20.2769 9.6543 20.666 10.0125 21.0674C10.371 21.4685 10.7289 21.7382 11.139 22.0709C11.5494 22.4033 12.0213 22.589 12.5178 22.8221C13.0143 23.0555 13.6287 23.2034 14.19 23.2799C14.7513 23.3564 15.5769 23.2772 16.0794 23.0993C16.5816 22.9211 17.0916 22.6937 17.4675 22.3574C17.8434 22.0211 18.3498 21.7229 18.45 21.2399C18.7479 20.0672 18.6486 18.7391 18.21 17.6399C17.9049 19.0892 16.0212 19.6685 15.69 21.0899C15.3372 20.6966 15.5505 20.0933 15.75 19.6799C14.8812 20.1164 14.0817 20.9342 13.8 21.8699C13.584 21.8918 13.3782 21.8456 13.17 21.8399Z" fill="#6B864F" fill-opacity="0.98"/>
<path d="M13.08 21.81C13.0923 21.8142 13.0341 21.8613 13.0797 21.8697C13.1253 21.8781 13.1505 21.8394 13.17 21.84C13.1793 21.8241 13.1694 21.7689 13.17 21.75C13.14 21.8247 13.1334 21.8055 13.08 21.81Z" fill="#7B886C" fill-opacity="0.42"/>
</g>
<defs>
<clipPath id="clip0_0_112">
<rect width="30" height="30" fill="white"/>
</clipPath>
</defs>
</svg>
